<svg width="91" height="88" viewBox="0 0 91 88" fill="none" xmlns="http://www.w3.org/2000/svg">
<path fill-rule="evenodd" clip-rule="evenodd" d="M64.8125 22.9033C64.2091 23.2513 63.4922 23.3455 62.8194 23.165C62.1466 22.9845 61.5731 22.5441 61.225 21.9408C60.8769 21.3374 60.7827 20.6204 60.9632 19.9477C61.1437 19.2749 61.5841 18.7013 62.1875 18.3533L74.3115 11.3533C74.7612 11.0929 75.2782 10.9718 75.7968 11.0055C76.3154 11.0392 76.8123 11.226 77.2246 11.5424C77.6369 11.8587 77.9461 12.2904 78.1128 12.7826C78.2796 13.2748 78.2965 13.8054 78.1615 14.3073L74.6755 27.3098L81.3115 23.4808C81.6101 23.3057 81.9405 23.1914 82.2835 23.1445C82.6264 23.0976 82.9753 23.119 83.31 23.2075C83.6447 23.296 83.9586 23.4498 84.2336 23.6601C84.5086 23.8704 84.7393 24.133 84.9124 24.4328C85.0855 24.7326 85.1975 25.0636 85.2422 25.4069C85.2868 25.7502 85.2631 26.099 85.1724 26.4331C85.0817 26.7672 84.9258 27.08 84.7137 27.3536C84.5015 27.6272 84.2374 27.8561 83.9365 28.0273L71.8125 35.0273C71.3627 35.2876 70.8458 35.4087 70.3272 35.375C69.8086 35.3413 69.3117 35.1545 68.8993 34.8381C68.487 34.5218 68.1779 34.0901 68.0111 33.5979C67.8443 33.1057 67.8274 32.5751 67.9625 32.0733L71.4485 19.0708L64.8125 22.9033ZM51.8555 28.1533C51.5567 27.9809 51.2948 27.7514 51.0848 27.4778C50.8747 27.2042 50.7206 26.892 50.6312 26.5588C50.5419 26.2257 50.519 25.8782 50.5639 25.5363C50.6088 25.1943 50.7206 24.8645 50.893 24.5658C51.0653 24.267 51.2949 24.0051 51.5684 23.7951C51.842 23.585 52.1543 23.4309 52.4874 23.3415C52.8205 23.2521 53.168 23.2292 53.51 23.2742C53.8519 23.3191 54.1817 23.4309 54.4805 23.6033L60.5425 27.1033C60.9921 27.3629 61.3547 27.75 61.5843 28.2157C61.814 28.6813 61.9003 29.2046 61.8325 29.7194C61.7647 30.2342 61.5458 30.7173 61.2034 31.1076C60.861 31.4979 60.4105 31.778 59.909 31.9123L56.4685 32.8363L57.0425 33.1688C57.3434 33.3399 57.6075 33.5688 57.8197 33.8424C58.0318 34.116 58.1876 34.4288 58.2784 34.7629C58.3691 35.097 58.3928 35.4458 58.3482 35.7891C58.3035 36.1324 58.1915 36.4634 58.0184 36.7632C57.8453 37.063 57.6146 37.3256 57.3396 37.5359C57.0646 37.7462 56.7507 37.9 56.416 37.9885C56.0813 38.077 55.7324 38.0984 55.3894 38.0515C55.0465 38.0046 54.7161 37.8903 54.4175 37.7153L48.3555 34.2153C47.9058 33.9559 47.5431 33.5691 47.3132 33.1036C47.0833 32.6382 46.9967 32.115 47.0641 31.6003C47.1315 31.0856 47.35 30.6024 47.692 30.2119C48.034 29.8214 48.4842 29.541 48.9855 29.4063L52.4295 28.4823L51.8555 28.1533Z" fill="white"/>
<path fill-rule="evenodd" clip-rule="evenodd" d="M56.4125 17.1982C56.2095 17.6182 56.045 18.051 55.919 18.4967C54.7667 18.0669 53.5298 17.9129 52.3073 18.0471C51.0849 18.1813 49.9108 18.6 48.8792 19.2695C47.8476 19.9391 46.9872 20.841 46.3669 21.9029C45.7466 22.9648 45.3836 24.1572 45.307 25.3847C44.191 26.1265 43.2828 27.1409 42.6683 28.3318C42.0538 29.5226 41.7533 30.8506 41.7954 32.19C41.8375 33.5294 42.2206 34.836 42.9086 35.9859C43.5966 37.1359 44.5667 38.0913 45.727 38.7617L51.7925 42.2617C52.9162 42.9106 54.1828 43.2717 55.4797 43.3131C56.7766 43.3544 58.0636 43.0747 59.2263 42.4987C60.3891 41.9227 61.3915 41.0683 62.1444 40.0115C62.8973 38.9547 63.3774 37.7283 63.542 36.4412C64.0378 37.3759 64.7169 38.2011 65.5387 38.8675C66.3605 39.5339 67.3082 40.0279 68.3251 40.32C69.3421 40.612 70.4075 40.6961 71.4576 40.5673C72.5078 40.4385 73.5213 40.0994 74.4375 39.5702L80.6745 35.9722C80.6863 36.1272 80.6976 36.2836 80.7085 36.4412C80.7863 37.5636 80.8434 38.7518 80.8852 40.0115C81 43.4706 81 47.4691 81 52.1282C81 56.0774 81 59.554 80.9297 62.6282C80.9016 63.8577 80.8622 65.0229 80.8071 66.1282C80.4242 73.8049 79.2818 78.5937 75.8725 82.0007C70.752 87.1282 62.5025 87.1282 46 87.1282C29.4975 87.1282 21.2515 87.1282 16.124 82.0007C12.7169 78.5959 11.5753 73.8062 11.1928 66.1282C11.1377 65.0229 11.0984 63.8577 11.0703 62.6282C11 59.5538 11 56.0772 11 52.1282C11 47.4702 11 43.4698 11.1153 40.0115C11.1573 38.7513 11.2146 37.563 11.2929 36.4412C11.7603 29.7371 12.9737 25.4046 16.124 22.2522C21.255 17.1282 29.501 17.1282 46 17.1282C49.9095 17.1282 53.3605 17.1282 56.4125 17.1982ZM53.203 46.8747C52.9745 46.6121 52.696 46.3975 52.3837 46.2436C52.0715 46.0896 51.7317 45.9993 51.3842 45.9779C51.0367 45.9565 50.6885 46.0044 50.3597 46.1189C50.0309 46.2334 49.7282 46.4121 49.4691 46.6447C49.2101 46.8773 48.9999 47.1591 48.8508 47.4737C48.7017 47.7883 48.6166 48.1294 48.6006 48.4771C48.5846 48.8249 48.6379 49.1724 48.7575 49.4994C48.877 49.8263 49.0604 50.1263 49.297 50.3817C51.642 52.9857 54.715 54.7532 58.25 54.7532C61.785 54.7532 64.8615 52.9857 67.203 50.3852C67.4337 50.1287 67.6117 49.8293 67.7267 49.504C67.8417 49.1788 67.8916 48.8341 67.8734 48.4896C67.8552 48.1451 67.7693 47.8075 67.6206 47.4962C67.472 47.1849 67.2635 46.9059 67.007 46.6752C66.7505 46.4444 66.4511 46.2665 66.1259 46.1515C65.8006 46.0364 65.4559 45.9866 65.1114 46.0048C64.7669 46.023 64.4294 46.1089 64.118 46.2575C63.8067 46.4062 63.5277 46.6147 63.297 46.8712C61.6695 48.6807 59.9195 49.5032 58.25 49.5032C56.5805 49.5032 54.8305 48.6807 53.203 46.8747ZM24.993 46.6752C25.2493 46.4442 25.5487 46.266 25.874 46.1508C26.1993 46.0357 26.5441 45.9858 26.8886 46.004C27.2332 46.0222 27.5708 46.1081 27.8822 46.2569C28.1935 46.4057 28.4724 46.6145 28.703 46.8712C30.3305 48.6807 32.0805 49.5032 33.75 49.5032C35.4195 49.5032 37.173 48.6807 38.797 46.8747C39.0255 46.6121 39.304 46.3975 39.6163 46.2436C39.9285 46.0896 40.2683 45.9993 40.6158 45.9779C40.9633 45.9565 41.3115 46.0044 41.6403 46.1189C41.9691 46.2334 42.2718 46.4121 42.5309 46.6447C42.7899 46.8773 43.0001 47.1591 43.1492 47.4737C43.2983 47.7883 43.3834 48.1294 43.3994 48.4771C43.4154 48.8249 43.3621 49.1724 43.2425 49.4994C43.123 49.8263 42.9396 50.1263 42.703 50.3817C40.358 52.9857 37.285 54.7532 33.75 54.7532C30.215 54.7532 27.1385 52.9857 24.797 50.3852C24.566 50.1288 24.3878 49.8294 24.2727 49.5042C24.1575 49.1789 24.1076 48.8341 24.1258 48.4895C24.144 48.145 24.23 47.8073 24.3788 47.496C24.5276 47.1847 24.7363 46.9058 24.993 46.6752ZM49.5 66.1282C49.5 67.0564 49.1312 67.9467 48.4749 68.6031C47.8185 69.2594 46.9283 69.6282 46 69.6282C45.0717 69.6282 44.1815 69.2594 43.5251 68.6031C42.8688 67.9467 42.5 67.0564 42.5 66.1282C42.5 65.1999 42.8688 64.3097 43.5251 63.6533C44.1815 62.9969 45.0717 62.6282 46 62.6282C46.9283 62.6282 47.8185 62.9969 48.4749 63.6533C49.1312 64.3097 49.5 65.1999 49.5 66.1282Z" fill="white"/>
<path d="M8.13361 0.5C6.40296 0.5 5 1.90297 5 3.63361V36.4412H11L11.2671 3.65914C11.2813 1.91858 9.87423 0.5 8.13361 0.5V0.5Z" fill="white"/>
<path fill-rule="evenodd" clip-rule="evenodd" d="M11.0703 62.6282H10C7.23858 62.6282 5 60.3896 5 57.6282V45.0115C5 42.2501 7.23858 40.0115 10 40.0115H11.1153C11.1573 38.7513 11.2146 37.563 11.2929 36.4412H11H5V36.4412C2.51472 36.4412 0.5 38.4559 0.5 40.9412V61.1282C0.5 63.8896 2.73858 66.1282 5.5 66.1282H11.1928C11.1377 65.0229 11.0984 63.8577 11.0703 62.6282Z" fill="white"/>
<path d="M80.6745 35.9722L80.7085 36.4412H87L87.3887 32.9884C87.4347 32.5799 86.9956 32.2935 86.6404 32.5003L80.6745 35.9722Z" fill="white"/>
<path d="M87 16.1177C87 16.2391 86.9297 16.3494 86.8198 16.4008L81.1924 19.0278C80.9511 19.1404 80.6745 18.9643 80.6745 18.698V3.66275C80.6745 1.91601 82.0905 0.5 83.8372 0.5V0.5C85.584 0.5 87 1.91601 87 3.66275V16.1177Z" fill="white"/>
<path fill-rule="evenodd" clip-rule="evenodd" d="M80.8071 66.1282C80.8622 65.0229 80.9016 63.8577 80.9297 62.6282H82C84.7614 62.6282 87 60.3896 87 57.6282V45.0115C87 42.2501 84.7614 40.0115 82 40.0115H80.8852C80.8434 38.7518 80.7863 37.5636 80.7085 36.4412H87V36.4412C89.2091 36.4412 91 38.232 91 40.4412V60.1282C91 63.4419 88.3137 66.1282 85 66.1282H80.8071Z" fill="white"/>
</svg>
